<?xml version="1.0" encoding="iso-8859-1"?>
<!-- Generator: Adobe Illustrator 19.0.0, SVG Export Plug-In . SVG Version: 6.00 Build 0)  -->
<svg version="1.1" id="Layer_1" xmlns="http://www.w3.org/2000/svg" xmlns:xlink="http://www.w3.org/1999/xlink" x="0px" y="0px"
	 viewBox="0 0 512 512" style="enable-background:new 0 0 512 512;" xml:space="preserve">
<path d="M229.6,88c7.2,8.8,17.6,13.6,28.8,13.6c11.2,0,21.6-5.6,28.8-13.6l97.6,88.8h24L295.2,74.4c0.8-3.2,0.8-6.4,0.8-9.6
	c0-20.8-16.8-37.6-37.6-37.6S220.8,44,220.8,64.8c0,3.2,0.8,5.6,0.8,8.8L104,177.6h24L229.6,88z"/>
<polygon style="fill:#FF583E;" points="408,177.6 384.8,177.6 128,177.6 104,177.6 0,177.6 0,484.8 512,484.8 512,177.6 "/>
<g>
	<path style="fill:#FFFFFF;" d="M86.4,369.6c8,4,20,8,32.8,8c13.6,0,20.8-5.6,20.8-14.4c0-8-6.4-12.8-21.6-18.4
		c-21.6-7.2-36-20-36-38.4c0-22.4,18.4-39.2,49.6-39.2c14.4,0,25.6,3.2,33.6,6.4l-6.4,24c-5.6-2.4-14.4-6.4-27.2-6.4s-20,5.6-20,12
		c0,8,7.2,12,24,18.4c23.2,8.8,34.4,20.8,34.4,39.2c0,21.6-16.8,40.8-52.8,40.8c-15.2,0-29.6-4-36.8-8L86.4,369.6z"/>
	<path style="fill:#FFFFFF;" d="M244.8,400l-1.6-9.6h-0.8c-6.4,7.2-16,12-27.2,12c-19.2,0-30.4-14.4-30.4-28.8
		c0-24.8,22.4-36.8,56-36V336c0-4.8-2.4-12-17.6-12c-9.6,0-20,3.2-26.4,7.2l-5.6-19.2c6.4-4,20-8,36.8-8c32,0,41.6,18.4,41.6,40.8
		v32.8c0,8.8,0,17.6,1.6,23.2L244.8,400L244.8,400z M241.6,355.2c-15.2,0-28,3.2-28,15.2c0,7.2,4.8,11.2,12,11.2s13.6-4.8,15.2-11.2
		c0-1.6,0.8-3.2,0.8-4.8V355.2L241.6,355.2z"/>
	<path style="fill:#FFFFFF;" d="M293.6,261.6h29.6V400h-29.6V261.6z"/>
	<path style="fill:#FFFFFF;" d="M369.6,361.6c0.8,12,12.8,18.4,27.2,18.4c10.4,0,18.4-1.6,26.4-4l4,20c-9.6,4-21.6,5.6-34.4,5.6
		c-32,0-50.4-18.4-50.4-48.8c0-24,15.2-50.4,48-50.4c30.4,0,42.4,24,42.4,47.2c0,4.8-0.8,9.6-0.8,12L369.6,361.6L369.6,361.6z
		 M404.8,341.6c0-7.2-3.2-19.2-16.8-19.2c-12.8,0-17.6,11.2-18.4,19.2H404.8z"/>
</g>
<g>
</g>
<g>
</g>
<g>
</g>
<g>
</g>
<g>
</g>
<g>
</g>
<g>
</g>
<g>
</g>
<g>
</g>
<g>
</g>
<g>
</g>
<g>
</g>
<g>
</g>
<g>
</g>
<g>
</g>
</svg>
